<?xml version="1.0" encoding="iso-8859-1"?>
<!-- Generator: Adobe Illustrator 18.0.0, SVG Export Plug-In . SVG Version: 6.00 Build 0)  -->
<!DOCTYPE svg PUBLIC "-//W3C//DTD SVG 1.1//EN" "http://www.w3.org/Graphics/SVG/1.1/DTD/svg11.dtd">
<svg xmlns="http://www.w3.org/2000/svg" xmlns:xlink="http://www.w3.org/1999/xlink" version="1.1" id="Capa_1" x="0px" y="0px" viewBox="0 0 406.973 406.973" style="enable-background:new 0 0 406.973 406.973;" xml:space="preserve" width="512px" height="512px">
<g>
	<g>
		<g>
			<g>
				<path d="M216.816,207.486c-1.32,0-2.61-0.53-3.54-1.46c-0.931-0.94-1.46-2.22-1.46-3.54c0-1.32,0.529-2.6,1.46-3.54      c0.93-0.931,2.22-1.46,3.54-1.46c1.31,0,2.6,0.529,3.529,1.46c0.931,0.93,1.471,2.22,1.471,3.54c0,1.32-0.54,2.609-1.471,3.54      C219.416,206.956,218.126,207.486,216.816,207.486z" fill="#363536"/>
			</g>
			<g>
				<path d="M216.816,275.066c-1.32,0-2.61-0.54-3.54-1.471c-0.931-0.93-1.46-2.22-1.46-3.529c0-1.32,0.529-2.61,1.46-3.54      c0.93-0.931,2.22-1.46,3.54-1.46c1.31,0,2.6,0.529,3.529,1.46c0.931,0.93,1.471,2.22,1.471,3.54c0,1.309-0.54,2.6-1.471,3.529      C219.416,274.526,218.126,275.066,216.816,275.066z" fill="#363536"/>
			</g>
		</g>
		<g>
			<path d="M279.578,137.79l-15.486-26.498l-0.019,0.011c-0.42-0.719-1.79-2.488-4.198-2.488c-1.752,0-3.47,0.857-4.416,2.477     l-15.486,26.498c-0.904,1.546-0.912,3.458-0.021,5.012c0.892,1.553,2.546,2.511,4.337,2.511h30.973     c1.791,0,3.445-0.958,4.337-2.511C280.49,141.248,280.482,139.337,279.578,137.79z M253.003,135.313l6.772-11.589l6.772,11.589     H253.003z" fill="#363536"/>
			<g>
				<path d="M341.406,126.987c-1.179-76.595-19.849-85.704-24.071-86.776C289.7,32.711,240.82,1.124,240.33,0.805      C239.52,0.28,238.574,0,237.608,0h-68.244c-0.966,0-1.911,0.28-2.722,0.806c-0.49,0.318-49.356,31.901-77.005,39.405      c-4.223,1.073-22.893,10.182-24.071,86.776c-1.183,76.837-4.751,249.495-4.787,251.23c-0.035,1.712,0.808,3.323,2.234,4.27      c0.478,0.317,8.3,5.352,22.249,5.351c5.355-0.001,11.639-0.779,18.734-2.82c0.303,2.858,0.678,5.552,1.147,8.006      c0.306,1.594,1.365,2.94,2.842,3.611c1.019,0.464,23.039,10.339,46.186,10.339c2.403,0,7.646-0.395,7.851-0.441      c0.843-0.191,13.665-3.318,26.364-16.475h30.197c12.699,13.156,25.521,16.283,26.364,16.475      c0.205,0.047,5.446,0.441,7.851,0.441c23.145,0,45.167-9.875,46.187-10.339c1.477-0.671,2.536-2.018,2.842-3.611      c0.47-2.45,0.843-5.137,1.146-7.989c7.101,2.041,13.376,2.804,18.736,2.804c13.946-0.001,21.771-5.033,22.249-5.351      c1.427-0.946,2.27-2.558,2.234-4.27C346.157,376.482,342.589,203.824,341.406,126.987z M238.938,31.917      c1.731-6.818,2.851-12.833,3.382-18.035c2.46,1.523,5.426,3.335,8.787,5.339l5.535,15.136l-8.207,4.514      c-1.487,0.818-2.458,2.335-2.577,4.029c-0.12,1.694,0.629,3.333,1.987,4.352l9.305,6.979      c-8.557,31.984-34.624,77.248-48.663,100.26v-7.871C215.278,121.471,231.434,61.457,238.938,31.917z M232.621,10      c-0.278,5.188-1.406,11.704-3.375,19.455c-6.093,23.983-17.911,68.134-25.76,97.295c-7.849-29.16-19.667-73.312-25.76-97.295      c-1.974-7.77-3.083-14.267-3.355-19.455H232.621z M161.115,42.9c-0.119-1.694-1.09-3.211-2.577-4.029l-8.207-4.514l5.535-15.136      c3.361-2.004,6.327-3.816,8.787-5.339c0.529,5.2,1.65,11.217,3.382,18.036c7.503,29.539,23.659,89.553,30.451,114.702v7.871      c-14.039-23.012-40.106-68.276-48.663-100.26l9.305-6.979C160.486,46.233,161.235,44.594,161.115,42.9z M103.266,374.825      c-16.863,5.396-27.907,2.356-32.424,0.468c0.49-23.83,3.629-177.021,4.723-248.151c0.721-46.821,7.979-65.59,12.733-72.897      c5.149,19.002,17.955,70.184,22.159,123.429c0.007,0.083,6.455,50.634,1.229,87.629      C107.62,294.093,101.87,342.084,103.266,374.825z M160.066,396.713c-18.647,1.699-38.76-5.476-45.55-8.186      c-3.189-20.655-0.635-56.227,2.536-85.525c7.382,2.698,14.544,3.44,20.142,3.44c6.346,0,10.683-0.941,11.056-1.025      c1.928-0.434,3.419-1.961,3.807-3.897l5.384-26.927c0.27-1.355-0.031-2.763-0.835-3.887c-0.804-1.125-2.037-1.867-3.407-2.05      l-31.312-4.178c4.802-37.435-1.034-84.318-1.471-87.716c-4.534-57.254-18.854-112.15-23.352-128.354      c13.876-4.588,30.938-13.306,45.293-21.364l-2.893,7.909c-0.848,2.318,0.124,4.909,2.286,6.098l5.18,2.849l-5.77,4.328      c-1.592,1.193-2.324,3.217-1.865,5.152c10.205,43.093,52.553,109.716,59.19,119.99v179.217      C187.368,388.363,163.018,395.923,160.066,396.713z M118.218,292.698c0.797-6.749,1.592-12.946,2.313-18.313l26.057,3.476      l-3.652,18.271C138.04,296.674,128.108,296.987,118.218,292.698z M196.472,380.057c2.488-3.671,4.864-7.818,7.015-12.534      c2.15,4.716,4.526,8.863,7.015,12.534H196.472z M292.456,388.527c-6.794,2.712-26.897,9.889-45.546,8.186      c-3.051-0.82-27.325-8.402-38.424-44.093V173.37c6.638-10.274,48.985-76.898,59.19-119.99c0.459-1.936-0.273-3.959-1.865-5.152      l-5.77-4.328l5.18-2.849c2.162-1.19,3.134-3.78,2.286-6.098l-2.892-7.909c14.355,8.058,31.416,16.775,45.292,21.364      c-4.497,16.204-18.817,71.1-23.352,128.354c-0.436,3.398-6.272,50.281-1.471,87.716l-31.312,4.178      c-1.37,0.183-2.604,0.925-3.407,2.05c-0.804,1.124-1.105,2.531-0.835,3.887l5.384,26.927c0.388,1.936,1.879,3.464,3.807,3.897      c0.373,0.084,4.709,1.025,11.056,1.025c5.598,0,12.759-0.742,20.141-3.443C293.091,332.296,295.646,367.871,292.456,388.527z       M288.755,292.696c-9.839,4.254-19.813,3.953-24.72,3.423l-3.65-18.258l26.057-3.476      C287.163,279.752,287.958,285.948,288.755,292.696z M303.708,374.805c1.392-32.74-4.357-80.718-8.422-109.503      c-5.226-36.995,1.223-87.545,1.229-87.629c4.2-53.212,17.01-104.418,22.16-123.428c4.755,7.308,12.012,26.077,12.732,72.896      c1.094,71.124,4.231,224.302,4.723,248.147C331.587,377.188,320.535,380.185,303.708,374.805z" fill="#363536"/>
			</g>
		</g>
	</g>
</g>
<g>
</g>
<g>
</g>
<g>
</g>
<g>
</g>
<g>
</g>
<g>
</g>
<g>
</g>
<g>
</g>
<g>
</g>
<g>
</g>
<g>
</g>
<g>
</g>
<g>
</g>
<g>
</g>
<g>
</g>
</svg>
