<?xml version="1.0" encoding="iso-8859-1"?>
<!-- Generator: Adobe Illustrator 18.0.0, SVG Export Plug-In . SVG Version: 6.00 Build 0)  -->
<!DOCTYPE svg PUBLIC "-//W3C//DTD SVG 1.1//EN" "http://www.w3.org/Graphics/SVG/1.1/DTD/svg11.dtd">
<svg xmlns="http://www.w3.org/2000/svg" xmlns:xlink="http://www.w3.org/1999/xlink" version="1.1" id="Capa_1" x="0px" y="0px" viewBox="0 0 404.114 404.114" style="enable-background:new 0 0 404.114 404.114;" xml:space="preserve" width="512px" height="512px">
<path d="M315.541,44.258c-0.103-0.693-2.729-16.878-24.026-25.799c-0.1-0.059-27.569-13.591-62.579-18.434  c0,0-5.098-0.669-5.685,4.953v17.775c0,13.682-13.229,15.725-21.113,15.725c-7.886,0-21.115-2.043-21.115-15.725V4.977  c-0.434-5.51-5.686-4.953-5.686-4.953c-34.176,4.727-59.923,17.091-62.15,18.185c-21.844,8.866-24.51,25.349-24.613,26.049  c-0.157,1.073,0.038,2.169,0.558,3.121c11.548,21.17,31.693,28.142,39.806,30.16c0.523,35.694,13.842,62.934,19.117,72.354  c-9.535,9.898-37.776,44.851-37.776,111.64v125.812c0,5.547,5.063,9.928,29.769,13.275c16.622,2.252,38.673,3.492,62.092,3.492  c23.418,0,45.469-1.24,62.09-3.492c24.706-3.348,29.769-7.729,29.769-13.275c0-0.006-0.002-0.012-0.002-0.02V261.534  c0-66.787-28.24-101.741-37.777-111.639c5.288-9.448,18.608-36.708,19.121-72.396c8.22-2.072,28.177-9.093,39.645-30.12  C315.503,46.427,315.698,45.331,315.541,44.258z M98.872,44.274c0.992-2.882,4.197-9.522,13.535-14.647l12.819,36.217  C117.487,62.858,106.273,56.645,98.872,44.274z M283.994,261.534v124.344c-6.026,3.602-36.269,8.236-81.856,8.236  c-45.594,0-75.838-4.635-81.86-8.236V261.534c0-65.945,29.565-99.254,36.083-105.791h91.55  C254.446,162.299,283.994,195.606,283.994,261.534z M265.651,73.718c-0.189,0.536-0.286,1.1-0.286,1.668  c0,35.153-13.866,62.502-18.306,70.356h-89.854c-4.445-7.837-18.297-35.094-18.297-70.356c0-0.568-0.098-1.133-0.287-1.668  L121.52,25.405c7.85-3.403,26.476-10.715,49.502-14.598v11.946c0,15.868,11.923,25.725,31.115,25.725  c19.191,0,31.113-9.857,31.113-25.725V10.807c23.028,3.883,41.654,11.195,49.501,14.598L265.651,73.718z M279.071,65.773  l12.77-36.076c9.307,5.13,12.443,11.684,13.41,14.563C297.907,56.544,286.806,62.76,279.071,65.773z" fill="#363536"/>
<g>
</g>
<g>
</g>
<g>
</g>
<g>
</g>
<g>
</g>
<g>
</g>
<g>
</g>
<g>
</g>
<g>
</g>
<g>
</g>
<g>
</g>
<g>
</g>
<g>
</g>
<g>
</g>
<g>
</g>
</svg>
