<?xml version="1.0" encoding="iso-8859-1"?>
<!-- Generator: Adobe Illustrator 18.0.0, SVG Export Plug-In . SVG Version: 6.00 Build 0)  -->
<!DOCTYPE svg PUBLIC "-//W3C//DTD SVG 1.1//EN" "http://www.w3.org/Graphics/SVG/1.1/DTD/svg11.dtd">
<svg xmlns="http://www.w3.org/2000/svg" xmlns:xlink="http://www.w3.org/1999/xlink" version="1.1" id="Capa_1" x="0px" y="0px" viewBox="0 0 432.719 432.719" style="enable-background:new 0 0 432.719 432.719;" xml:space="preserve" width="512px" height="512px">
<path d="M260.394,125.574v-15.37l10.271-47.66c0.289-1.336,0.018-2.733-0.75-3.863c-0.77-1.13-1.967-1.898-3.314-2.122  c-0.072-0.013-7.053-1.35-19.471-8.47l14.563-35.369c1.018-2.47-0.086-5.304-2.508-6.434L246.726,0.47  c-1.969-0.919-4.305-0.462-5.781,1.13c-8.859,9.552-17.086,17.458-24.598,24.009c-8.064-7.045-16.314-15.102-24.573-24.009  c-1.477-1.592-3.814-2.049-5.781-1.13l-12.461,5.816c-1.226,0.571-2.167,1.615-2.609,2.893c-0.443,1.277-0.35,2.681,0.26,3.888  l16.897,33.515c-13.946,8.395-21.831,9.953-21.962,9.977c-1.349,0.225-2.547,0.991-3.314,2.122  c-0.768,1.131-1.039,2.526-0.752,3.863l10.271,47.66v15.37c-4.443,7.099-21.761,40.018-19.52,118.815  c2.467,86.749,9.494,182.738,9.564,183.697c0.193,2.612,2.368,4.633,4.986,4.633h38.213c2.69,0,4.898-2.127,4.997-4.815  c1.585-42.774,3.765-97.007,5.796-140.864c2.031,43.857,4.21,98.09,5.794,140.864c0.1,2.688,2.307,4.815,4.996,4.815h38.213  c2.619,0,4.795-2.021,4.986-4.633c0.072-0.959,7.1-96.948,9.566-183.698C282.156,165.59,264.838,132.672,260.394,125.574z   M259.9,65.03l-8.543,39.642h-27.525l19.459-47.261C250.576,61.497,256.211,63.789,259.9,65.03z M182.431,13.167l4.505-2.102  c7.267,7.692,14.525,14.732,21.662,21.037c-4.316,3.467-8.347,6.451-12.072,9.02L182.431,13.167z M245.783,11.064l4.846,2.263  l-37.611,91.345H181.36l-8.541-39.632C183.307,61.518,209.402,49.578,245.783,11.064z M211.352,206.681  c-0.818,3.855-2.447,20.101-6.471,113.407c-1.908,44.232-3.59,88.309-4.13,102.631h-28.742  c-1.427-20.213-7.059-102.946-9.21-178.615c-2.051-72.091,12.85-104.126,17.303-112.021h7.52l-2.771,16.645  c-0.453,2.724,1.388,5.299,4.111,5.753c0.278,0.046,0.554,0.068,0.827,0.068c2.4,0,4.52-1.734,4.926-4.181l3.043-18.285h13.594  V206.681z M182.323,122.082v-7.41h68.072v7.41H182.323z M269.92,244.103c-2.152,75.662-7.783,158.401-9.211,178.615h-28.742  c-0.539-14.322-2.223-58.399-4.129-102.631c-4.025-93.307-5.654-109.553-6.473-113.407v-74.599h13.596l3.041,18.285  c0.408,2.446,2.527,4.181,4.928,4.181c0.271,0,0.549-0.023,0.826-0.068c2.725-0.454,4.564-3.029,4.111-5.753l-2.77-16.645h7.516  C257.088,140.02,271.967,172.06,269.92,244.103z" fill="#363636"/>
<g>
</g>
<g>
</g>
<g>
</g>
<g>
</g>
<g>
</g>
<g>
</g>
<g>
</g>
<g>
</g>
<g>
</g>
<g>
</g>
<g>
</g>
<g>
</g>
<g>
</g>
<g>
</g>
<g>
</g>
</svg>
